<svg fill="none" xmlns="http://www.w3.org/2000/svg" viewBox="0 0 166 77"><g opacity=".5"><path d="M98.96 37.852h-9.366v23.23h9.367v-23.23Z" fill="#FDFDFC"/><path d="M117.77 26.973H98.96v47.463h18.81V26.973Z" fill="#F8F5F1"/><path d="M124.735 26.973h-6.964v47.463h6.964V26.973ZM119.812 21.686h-4.836v5.287h4.836v-5.287Z" fill="#AF8860"/><path d="M114.975 21.686h-11.567v5.287h11.567v-5.287Z" fill="#DCCBBA"/><path d="M114.052 16.579h-8.114v5.106h8.114V16.58Z" fill="#C4A789"/><path d="M117.095 16.579h-3.043v5.106h3.043V16.58Z" fill="#AF8860"/><path d="M145.699 12.953h-18.4v61.59h18.4v-61.59Z" fill="#F8F5F1"/><path d="M152.988 12.953h-7.289v61.71h7.289v-61.71Z" fill="#AF8861"/><path d="M144.78 10.284h-15.01v2.669h15.01v-2.67Z" fill="#C3A688"/><path d="M151.185 10.284h-6.405v2.669h6.405v-2.67Z" fill="#9A744E"/><path d="M143.894 7.181h-12.442v3.1h12.442v-3.1Z" fill="#DCCBBA"/><path d="M149.085 7.181h-5.191v3.1h5.191v-3.1Z" fill="#AF8861"/><path d="M114.052 15.964h-8.114v.611h8.114v-.61Z" fill="#B08962"/><path d="M117.095 15.964h-3.043v.611h3.043v-.61Z" fill="#A27A52"/><path d="M149.084 7.183 140.205.745l3.688 6.438h5.191Z" fill="#DCCBBA"/><path d="M143.894 7.183h-12.442l8.754-6.438 3.688 6.438Z" fill="#F8F5F1"/><path d="M57.988 32.453H51.82v42.032h6.168V32.453Z" fill="#DCCBBA"/><path d="M42.918 19.49v54.993h8.901V32.45l-8.9-12.96Z" fill="#FBF9F6"/><path d="m47.093 25.569-4.175-6.08h17.958l-1.355 6.08H47.093Z" fill="#C4A789"/><path d="M60.875 35.09v-15.6l-2.889 12.96v2.64" fill="#D5C1AD"/><path d="M57.986 35.092v39.393h2.89V35.092" fill="#C4A789"/><path d="M44.155 37.278h-.562v4.773h.562v-4.773Z" fill="#BA9875"/><path d="M45.114 37.278h-.957v4.773h.957v-4.773Z" fill="#E5D8CB"/><path d="M46.52 37.278h-.562v4.773h.562v-4.773Z" fill="#BA9875"/><path d="M47.476 37.278h-.957v4.773h.957v-4.773Z" fill="#E5D8CB"/><path d="M48.881 37.278h-.561v4.773h.561v-4.773Z" fill="#BA9875"/><path d="M49.838 37.278h-.957v4.773h.957v-4.773Z" fill="#E5D8CB"/><path d="M44.155 44.096h-.562v4.774h.562v-4.773Z" fill="#BA9875"/><path d="M45.114 44.096h-.957v4.774h.957v-4.773Z" fill="#E5D8CB"/><path d="M46.52 44.096h-.562v4.774h.562v-4.773Z" fill="#BA9875"/><path d="M47.476 44.096h-.957v4.774h.957v-4.773Z" fill="#E5D8CB"/><path d="M48.881 44.096h-.561v4.774h.561v-4.773Z" fill="#BA9875"/><path d="M49.838 44.096h-.957v4.774h.957v-4.773Z" fill="#E5D8CB"/><path d="M44.155 50.916h-.562v4.773h.562v-4.773Z" fill="#BA9875"/><path d="M45.114 50.916h-.957v4.773h.957v-4.773Z" fill="#E5D8CB"/><path d="M46.52 50.916h-.562v4.773h.562v-4.773Z" fill="#BA9875"/><path d="M47.476 50.916h-.957v4.773h.957v-4.773Z" fill="#E5D8CB"/><path d="M48.881 50.916h-.561v4.773h.561v-4.773Z" fill="#BA9875"/><path d="M49.838 50.916h-.957v4.773h.957v-4.773Z" fill="#E5D8CB"/><path d="M44.155 57.734h-.562v4.774h.562v-4.774Z" fill="#BA9875"/><path d="M45.114 57.734h-.957v4.774h.957v-4.774Z" fill="#E5D8CB"/><path d="M46.52 57.734h-.562v4.774h.562v-4.774Z" fill="#BA9875"/><path d="M47.476 57.734h-.957v4.774h.957v-4.774Z" fill="#E5D8CB"/><path d="M48.881 57.734h-.561v4.774h.561v-4.774Z" fill="#BA9875"/><path d="M49.838 57.734h-.957v4.774h.957v-4.774Z" fill="#E5D8CB"/><path d="M59.258 37.278h-.561v4.773h.561v-4.773Z" fill="#BA9875"/><path d="M60.215 37.278h-.957v4.773h.957v-4.773Z" fill="#E5D8CB"/><path d="M59.258 44.096h-.561v4.774h.561v-4.773Z" fill="#BA9875"/><path d="M60.215 44.096h-.957v4.774h.957v-4.773Z" fill="#E5D8CB"/><path d="M59.258 50.916h-.561v4.773h.561v-4.773Z" fill="#BA9875"/><path d="M60.215 50.916h-.957v4.773h.957v-4.773Z" fill="#E5D8CB"/><path d="M59.258 57.734h-.561v4.774h.561v-4.774Z" fill="#BA9875"/><path d="M60.215 57.734h-.957v4.774h.957v-4.774Z" fill="#E5D8CB"/><path d="M59.258 64.553h-.561v4.774h.561v-4.774Z" fill="#BA9875"/><path d="M60.215 64.553h-.957v4.774h.957v-4.774Z" fill="#E5D8CB"/><path d="M57.423 35.193h-5.04v1.619h5.04v-1.62ZM57.423 38.91h-5.04v1.618h5.04V38.91ZM57.423 42.626h-5.04v1.619h5.04v-1.62ZM57.423 46.333h-5.04v1.619h5.04v-1.62ZM57.423 50.05h-5.04v1.618h5.04V50.05ZM57.423 53.766h-5.04v1.619h5.04v-1.62ZM57.423 57.483h-5.04v1.619h5.04v-1.62ZM57.423 68.623h-5.04v1.619h5.04v-1.62ZM57.423 61.19h-5.04v1.618h5.04V61.19ZM57.423 64.906h-5.04v1.619h5.04v-1.62Z" fill="#EBE1D7"/><path d="M43.602 63.016h-21.72v-2.32h21.72" fill="#F8F5F1"/><path d="M44.155 64.553h-.562v4.774h.562v-4.774Z" fill="#BA9875"/><path d="M45.112 64.553h-.957v4.774h.957v-4.774Z" fill="#E5D8CB"/><path d="M46.52 64.553h-.562v4.774h.562v-4.774Z" fill="#BA9875"/><path d="M47.476 64.553h-.957v4.774h.957v-4.774Z" fill="#E5D8CB"/><path d="M48.881 64.553h-.561v4.774h.561v-4.774Z" fill="#BA9875"/><path d="M49.838 64.553h-.957v4.774h.957v-4.774Z" fill="#E5D8CB"/><path d="M43.603 60.696h3.76v2.32h-3.76" fill="#D0B9A2"/><path d="M43.603 68.334H22.162v-5.322h21.441" fill="#C3A688"/><path d="M43.603 63.012h3.76v5.322h-3.76" fill="#AF8861"/><path d="M43.602 69.073h-21.72v-.742h21.72" fill="#DBC9B7"/><path d="M43.603 68.33h3.76v.743h-3.76" fill="#CFB8A0"/><path d="M43.603 74.487H22.162v-5.411h21.44" fill="#C3A688"/><path d="M43.6 69.076h3.76v5.411H43.6" fill="#AF8861"/><path d="M22.162 64.128h.545v-.545h.415v-.57h-.96v1.115ZM22.162 65.528h.545v-.545h.415v-.57h-.96v1.115ZM22.162 66.929h.545v-.546h.415v-.57h-.96v1.116ZM22.162 68.329h.545v-.545h.415v-.572h-.96v1.117ZM22.187 70.071h.545v-.545h.415v-.571h-.96v1.116ZM22.187 71.501h.545v-.545h.415v-.57h-.96V71.5ZM22.187 72.932h.545v-.545h.415v-.571h-.96v1.116ZM22.187 74.372h.545v-.545h.415v-.571h-.96v1.116ZM43.602 64.128h-.545v-.545h-.416v-.57h.96v1.115ZM43.602 65.528h-.545v-.545h-.416v-.57h.96v1.115ZM43.602 66.929h-.545v-.546h-.416v-.57h.96v1.116ZM43.602 68.329h-.545v-.545h-.416v-.572h.96v1.117ZM43.602 70.192h-.545v-.545h-.416v-.571h.96v1.116ZM43.602 71.622h-.545v-.545h-.416v-.57h.96v1.115ZM43.602 73.052h-.545v-.545h-.416v-.57h.96v1.115ZM43.602 74.483h-.545v-.545h-.416v-.571h.96v1.116Z" fill="#EBE1D7"/><path d="M31.469 63.607H30.44v4.158h1.028v-4.158Z" fill="#F8F5F1"/><path d="M30.44 63.607h-.09v4.158h.09v-4.158Z" fill="#B89571"/><path d="M30.351 63.607H25.72v4.158h4.631v-4.158ZM25.63 63.607h-.89v4.158h.89v-4.158Z" fill="#F8F5F1"/><path d="M24.74 63.607h-.31v4.158h.31v-4.158ZM25.719 63.607h-.09v4.158h.09v-4.158Z" fill="#B89571"/><path d="M41.86 63.607h-1.027v4.158h1.028v-4.158Z" fill="#F8F5F1"/><path d="M40.832 63.607h-.09v4.158h.09v-4.158Z" fill="#B89571"/><path d="M40.744 63.607h-4.632v4.158h4.632v-4.158ZM36.021 63.607h-.889v4.158h.89v-4.158Z" fill="#F8F5F1"/><path d="M35.133 63.607h-.31v4.158h.31v-4.158ZM36.11 63.607h-.089v4.158h.09v-4.158Z" fill="#B89571"/><path d="M41.833 69.52h-.665v3.078h.665v-3.079Z" fill="#F8F5F1"/><path d="M41.168 69.52h-.058v3.078h.058v-3.079Z" fill="#B89571"/><path d="M41.11 69.52h-2.996v3.078h2.997v-3.079ZM38.057 69.52h-.575v3.078h.575v-3.079Z" fill="#F8F5F1"/><path d="M37.48 69.52h-.2v3.078h.2v-3.079ZM38.114 69.52h-.058v3.078h.058v-3.079Z" fill="#B89571"/><path d="M30.83 70.627h-5.722v3.86h5.722v-3.86ZM34.728 70.627h-2.834v3.86h2.834v-3.86Z" fill="#73573A"/><path d="M33.297 65.407h-.995v-.551h-.415v-.564h.96v.564h.45v.552ZM36.73 69.358h-.96v.564h.96v-.564Z" fill="#EBE1D7"/><path d="M42.92 60.693V51.73l-3.043 1.69v3.084L35.3 58.953v1.74h7.621Z" fill="#9A744E"/><path d="M35.296 58.953h-4.671v1.74h4.671v-1.74ZM39.877 53.423h-4.672v3.083h4.672v-3.083Z" fill="#C3A688"/><path d="M30.625 58.955h4.672l4.578-2.45h-4.67l-4.58 2.45Z" fill="#FDFDFC"/><path d="M33.388 54.743h-.396v5.95h.396v-5.95Z" fill="#EBE1D7"/><path fill-rule="evenodd" clip-rule="evenodd" d="M31.948 55.206c-.306 0-.585.07-.795.193-.21.121-.362.305-.362.524 0 .219.151.402.362.524.21.122.49.192.795.192.306 0 .585-.07.796-.192.21-.122.361-.305.361-.524 0-.22-.151-.403-.361-.524a1.604 1.604 0 0 0-.796-.193Zm0 .222a1.4 1.4 0 0 1 .684.163c.168.097.25.217.25.332 0 .115-.082.233-.25.33a1.404 1.404 0 0 1-.684.163c-.271 0-.515-.066-.683-.163-.168-.097-.252-.215-.252-.33 0-.115.084-.235.252-.332a1.4 1.4 0 0 1 .683-.163Z" fill="#EBE1D7"/><path d="M48.224 25.574v1.645l1.13 1.645v-3.29h-1.13Z" fill="#E5D8CB"/><path d="M49.352 25.573v3.29l1.13 1.646v-4.936h-1.13Z" fill="#DBCAB8"/><path d="M50.483 25.573h1.13v6.581l-1.13-1.645v-4.936Z" fill="#E5D8CB"/><path d="m51.613 32.155.206.3h.924v-6.882h-1.13v6.582Z" fill="#DBCAB8"/><path d="M53.871 25.573h-1.13v6.883h1.13v-6.883Z" fill="#E5D8CB"/><path d="M55.002 25.573h-1.13v6.883h1.13v-6.883Z" fill="#DBCAB8"/><path d="M56.133 25.573h-1.13v6.883h1.13v-6.883Z" fill="#E5D8CB"/><path d="M57.263 25.573h-1.13v6.883h1.13v-6.883Z" fill="#DBCAB8"/><path d="M57.261 25.573h1.13v5.07l-.404 1.813h-.726v-6.883Z" fill="#E5D8CB"/><path d="M58.392 25.573h1.13l-1.13 5.07M48.223 27.219l-1.13-1.646h1.13" fill="#DBCAB8"/><path d="M55.81 72.692H43.733v1.79H55.81v-1.79Z" fill="#6F5438"/><path d="M50.07 73.488h-1.103v.402h1.103v-.402ZM45.905 73.024h-1.103v.403h1.103v-.403ZM53.618 73.185h-1.103v.403h1.103v-.403ZM55.29 73.89h-1.103v.403h1.103v-.403ZM49.438 73.94h-1.103v.404h1.103v-.403Z" fill="#8C6946"/><path d="M55.81 72.36H43.733v.339H55.81v-.34Z" fill="#BC9B79"/><path d="M45.03 72.37c-.358-.67 1.006-.788 1.309-.725-.108-.248-.444-.563-.064-.677.721-.218.972.281 1.278.299.19-.1.314-.691 1.167-.867.32-.066.674.045 1.561.252.242-.035.386-.5.915-.536.622-.043.62.503.71.741.27.024.622-.287.898.016.324.355-.081.681-.031.883.85-.234 2.571.614 1.876.614h-9.62Z" fill="#604830"/><path d="M70.921 50.23h-8.384v1.057h8.384V50.23Z" fill="#D1BAA3"/><path d="M76.842 50.23h-5.92v1.057h5.92V50.23Z" fill="#9A744E"/><path d="M70.921 51.288h-8.384v5.568h8.384v-5.568Z" fill="#DCCBBA"/><path d="M76.842 51.288h-5.92v5.568h5.92v-5.568Z" fill="#AF8861"/><path d="M70.921 56.858h-8.384v.416h8.384v-.416Z" fill="#D1BAA3"/><path d="M76.842 56.858h-5.92v.416h5.92v-.416Z" fill="#9A744E"/><path d="M70.921 57.271h-8.384v5.568h8.384v-5.568Z" fill="#DCCBBA"/><path d="M76.842 57.271h-5.92v5.568h5.92v-5.568Z" fill="#AF8861"/><path d="M70.921 62.841h-8.384v.416h8.384v-.416Z" fill="#D1BAA3"/><path d="M76.842 62.841h-5.92v.416h5.92v-.416Z" fill="#9A744E"/><path d="M70.921 63.254h-8.384v5.568h8.384v-5.568Z" fill="#DCCBBA"/><path d="M76.842 63.254h-5.92v5.568h5.92v-5.568Z" fill="#AF8861"/><path d="M70.921 68.824h-8.384v.416h8.384v-.416Z" fill="#D1BAA3"/><path d="M76.842 68.824h-5.92v.416h5.92v-.416Z" fill="#9A744E"/><path d="M70.921 69.247h-8.384v5.568h8.384v-5.568Z" fill="#DCCBBA"/><path d="M76.842 69.247h-5.92v5.568h5.92v-5.568Z" fill="#AF8861"/><path d="M62.537 64.37h.545v-.545h.415v-.57h-.96v1.115ZM62.537 65.861h.545v-.545h.415v-.571h-.96v1.116ZM62.537 67.342h.545v-.546h.415v-.57h-.96v1.116ZM62.537 68.822h.545v-.545h.415v-.57h-.96v1.115Z" fill="#EBE1D7"/><path d="M68.635 64.07h-1.58V67.6h1.58V64.07Z" fill="#AF8860"/><path d="M67.055 64.07h-.27v3.801h.27V64.07Z" fill="#96714C"/><path d="M67.054 67.597v.27h1.58v-.27h-1.58Z" fill="#96714C"/><path d="M66.043 64.07h-1.58V67.6h1.58V64.07Z" fill="#AF8860"/><path d="M64.463 64.07h-.27v3.801h.27V64.07ZM64.463 67.597v.27h1.58v-.27h-1.58Z" fill="#96714C"/><path d="M68.635 58.147h-1.58v3.532h1.58v-3.532Z" fill="#AF8860"/><path d="M67.055 58.147h-.27v3.802h.27v-3.802Z" fill="#96714C"/><path d="M67.054 61.675v.27h1.58v-.27h-1.58Z" fill="#96714C"/><path d="M66.043 58.147h-1.58v3.532h1.58v-3.532Z" fill="#AF8860"/><path d="M64.463 58.147h-.27v3.802h.27v-3.802ZM64.463 61.675v.27h1.58v-.27h-1.58Z" fill="#96714C"/><path d="M68.434 69.56H64.75v4.875h3.684v-4.876Z" fill="#AF8860"/><path d="M64.749 69.56h-.656v4.875h.656v-4.876Z" fill="#96714C"/><path fill-rule="evenodd" clip-rule="evenodd" d="M65.3 70.685c0-.897 2.537-.897 2.537 0v3.753h-2.538v-3.753Z" fill="#59432D"/><path d="M68.635 52.164h-1.58v3.532h1.58v-3.532Z" fill="#AF8860"/><path d="M67.055 52.164h-.27v3.802h.27v-3.802Z" fill="#96714C"/><path d="M67.054 55.692v.27h1.58v-.27h-1.58Z" fill="#96714C"/><path d="M66.043 52.164h-1.58v3.532h1.58v-3.532Z" fill="#AF8860"/><path d="M64.463 52.164h-.27v3.802h.27v-3.802ZM64.463 55.692v.27h1.58v-.27h-1.58Z" fill="#96714C"/><path d="M70.923 52.404h-.545v-.545h-.415v-.57h.96v1.115ZM70.923 53.895h-.545v-.545h-.415v-.571h.96v1.116ZM70.923 55.376h-.545v-.545h-.415v-.572h.96v1.117ZM70.923 56.856h-.545v-.545h-.415v-.57h.96v1.115ZM70.923 58.387h-.545v-.545h-.415v-.57h.96v1.115ZM70.923 59.878h-.545v-.545h-.415v-.571h.96v1.116ZM70.923 61.358h-.545v-.544h-.415v-.572h.96v1.116ZM70.923 62.84h-.545v-.546h-.415v-.57h.96v1.115ZM70.923 64.37h-.545v-.545h-.415v-.57h.96v1.115ZM70.923 65.86h-.545v-.544h-.415v-.571h.96v1.116ZM70.923 67.342h-.545v-.546h-.415v-.57h.96v1.116ZM70.923 68.822h-.545v-.545h-.415v-.57h.96v1.115ZM62.537 52.404h.545v-.545h.415v-.57h-.96v1.115ZM62.537 53.895h.545v-.545h.415v-.571h-.96v1.116ZM62.537 55.376h.545v-.545h.415v-.572h-.96v1.117ZM62.537 56.856h.545v-.545h.415v-.57h-.96v1.115ZM62.537 58.387h.545v-.545h.415v-.57h-.96v1.115ZM62.537 59.878h.545v-.545h.415v-.571h-.96v1.116ZM62.537 61.358h.545v-.544h.415v-.572h-.96v1.116ZM62.537 62.84h.545v-.546h.415v-.57h-.96v1.115Z" fill="#EBE1D7"/><path d="M97.871 61.048H77.698v2.122h20.173v-2.122Z" fill="#DCCBBA"/><path d="M108.571 17.213h-1.134v4.474h1.134v-4.474Z" fill="#B08962"/><path d="M107.132 22.4h-1.498v4.09h1.498V22.4Z" fill="#AE875F"/><path d="M110.391 17.213h-1.134v4.474h1.134v-4.474ZM112.214 17.213h-1.134v4.474h1.134v-4.474Z" fill="#B08962"/><path d="M109.693 22.4h-1.498v4.09h1.498V22.4ZM112.254 22.4h-1.498v4.09h1.498V22.4Z" fill="#AE875F"/><path d="M101.651 30.73h-.792v3.667h.792V30.73Z" fill="#BA9875"/><path d="M103.878 30.73h-2.228v3.667h2.228V30.73Z" fill="#E5D8CB"/><path d="M101.651 35.324h-.792v3.666h.792v-3.666Z" fill="#BA9875"/><path d="M103.878 35.324h-2.228v3.666h2.228v-3.666Z" fill="#E5D8CB"/><path d="M101.651 39.926h-.792v3.667h.792v-3.667Z" fill="#BA9875"/><path d="M103.878 39.926h-2.228v3.667h2.228v-3.667Z" fill="#E5D8CB"/><path d="M101.651 44.52h-.792v3.666h.792V44.52Z" fill="#BA9875"/><path d="M103.878 44.52h-2.228v3.666h2.228V44.52Z" fill="#E5D8CB"/><path d="M101.651 49.112h-.792v3.667h.792v-3.667Z" fill="#BA9875"/><path d="M103.878 49.112h-2.228v3.667h2.228v-3.667Z" fill="#E5D8CB"/><path d="M101.651 53.715h-.792v3.667h.792v-3.666Z" fill="#BA9875"/><path d="M103.878 53.715h-2.228v3.667h2.228v-3.666Z" fill="#E5D8CB"/><path d="M101.651 58.309h-.792v3.666h.792v-3.666Z" fill="#BA9875"/><path d="M103.878 58.309h-2.228v3.666h2.228v-3.666Z" fill="#E5D8CB"/><path d="M101.651 62.902h-.792v3.666h.792v-3.666Z" fill="#BA9875"/><path d="M103.878 62.902h-2.228v3.666h2.228v-3.666Z" fill="#E5D8CB"/><path d="M101.651 67.505h-.792v3.666h.792v-3.666Z" fill="#BA9875"/><path d="M103.878 67.505h-2.228v3.666h2.228v-3.666Z" fill="#E5D8CB"/><path d="M119.577 30.67h1.007v44.316h-1.007V30.67Z" fill="#9A744E"/><path d="M120.582 30.67h.495v44.316h-.495V30.67Z" fill="#7D5E3F"/><path d="M114.01 30.73h-.792v3.667h.792V30.73Z" fill="#BA9875"/><path d="M116.237 30.73h-2.228v3.667h2.228V30.73Z" fill="#E5D8CB"/><path d="M114.01 35.324h-.792v3.666h.792v-3.666Z" fill="#BA9875"/><path d="M116.237 35.324h-2.228v3.666h2.228v-3.666Z" fill="#E5D8CB"/><path d="M114.01 39.926h-.792v3.667h.792v-3.667Z" fill="#BA9875"/><path d="M116.237 39.926h-2.228v3.667h2.228v-3.667Z" fill="#E5D8CB"/><path d="M114.01 44.52h-.792v3.666h.792V44.52Z" fill="#BA9875"/><path d="M116.237 44.52h-2.228v3.666h2.228V44.52Z" fill="#E5D8CB"/><path d="M114.01 49.112h-.792v3.667h.792v-3.667Z" fill="#BA9875"/><path d="M116.237 49.112h-2.228v3.667h2.228v-3.667Z" fill="#E5D8CB"/><path d="M114.01 53.715h-.792v3.667h.792v-3.666Z" fill="#BA9875"/><path d="M116.237 53.715h-2.228v3.667h2.228v-3.666Z" fill="#E5D8CB"/><path d="M114.01 58.309h-.792v3.666h.792v-3.666Z" fill="#BA9875"/><path d="M116.237 58.309h-2.228v3.666h2.228v-3.666Z" fill="#E5D8CB"/><path d="M114.01 62.902h-.792v3.666h.792v-3.666Z" fill="#BA9875"/><path d="M116.237 62.902h-2.228v3.666h2.228v-3.666Z" fill="#E5D8CB"/><path d="M114.01 67.505h-.792v3.666h.792v-3.666Z" fill="#BA9875"/><path d="M116.237 67.505h-2.228v3.666h2.228v-3.666Z" fill="#E5D8CB"/><path d="M122.264 30.67h1.006v44.316h-1.006V30.67Z" fill="#9A744E"/><path d="M123.268 30.67h.496v44.316h-.496V30.67Z" fill="#7D5E3F"/><path d="M105.17 30.68h1.39v44.317h-1.39V30.68ZM107.852 30.68h1.39v44.317h-1.39V30.68ZM110.534 30.68h1.39v44.317h-1.39V30.68Z" fill="#AF8860"/><path d="M102.064 61.048h-4.193v2.122h4.193v-2.122Z" fill="#AA8056"/><path d="M96.12 74.438v-4.595l1.981-1.354v-5.316h3.583v11.265h-5.563Z" fill="#AF8861"/><path d="M98.102 63.173H78.824v5.316h19.278v-5.316Z" fill="#EFE7DE"/><path d="m76.842 69.835 1.98-1.353h19.28l-1.981 1.353H76.842Z" fill="#FCFBF9"/><path d="M96.12 69.841H76.843v4.596h19.279V69.84Z" fill="#EFE7DE"/><path d="M87.181 63.798h-1.027v3.579h1.027v-3.579Z" fill="#F8F5F1"/><path d="M86.153 63.798h-.09v3.579h.09v-3.579Z" fill="#B89571"/><path d="M86.064 63.798h-4.632v3.579h4.632v-3.579ZM81.342 63.798h-.89v3.579h.89v-3.579Z" fill="#F8F5F1"/><path d="M80.453 63.798h-.31v3.579h.31v-3.579ZM81.431 63.798h-.09v3.579h.09v-3.579Z" fill="#B89571"/><path d="M83.606 70.577H77.58v3.86h6.026v-3.86Z" fill="#73573A"/><path d="M86.237 70.577h-1.868v3.86h1.868v-3.86Z" fill="#AF8861"/><path d="M92.882 70.577h-6.026v3.86h6.026v-3.86Z" fill="#73573A"/><path d="M95.51 70.577h-1.867v3.86h1.868v-3.86Z" fill="#AF8861"/><path d="M96.043 63.798h-1.028v3.579h1.028v-3.579Z" fill="#F8F5F1"/><path d="M95.014 63.798h-.09v3.579h.09v-3.579Z" fill="#B89571"/><path d="M94.925 63.798h-4.631v3.579h4.631v-3.579ZM90.203 63.798h-.889v3.579h.889v-3.579Z" fill="#F8F5F1"/><path d="M89.314 63.798h-.31v3.579h.31v-3.579ZM90.293 63.798h-.09v3.579h.09v-3.579Z" fill="#B89571"/><path d="M87.529 57.724H83.57v3.329h3.959v-3.329Z" fill="#EFE7DE"/><path d="M90.382 57.724H87.53v3.329h2.853v-3.329Z" fill="#DCCBBA"/><path d="M89.088 44.409h-4.47v1.331h4.47V44.41Z" fill="#C4A789"/><path d="M89.088 45.738h-4.47v1.332h4.47v-1.332ZM89.088 43.08h-4.47v1.33h4.47v-1.33Z" fill="#CCB49B"/><path d="M89.088 47.068h-4.47v1.331h4.47v-1.331Z" fill="#C4A789"/><path d="M89.088 48.397h-4.47v1.332h4.47v-1.332Z" fill="#CCB49B"/><path d="M89.088 49.727h-4.47v1.331h4.47v-1.331Z" fill="#C4A789"/><path d="M89.088 51.066h-4.47v1.332h4.47v-1.332Z" fill="#CCB49B"/><path d="M89.088 52.396h-4.47v1.331h4.47v-1.33Z" fill="#C4A789"/><path d="M89.088 53.726h-4.47v1.331h4.47v-1.331Z" fill="#CCB49B"/><path d="M89.088 55.055h-4.47v1.332h4.47v-1.332Z" fill="#C4A789"/><path d="M89.088 56.385h-4.47v1.331h4.47v-1.331Z" fill="#CCB49B"/><path d="M89.088 41.74h-4.47v1.331h4.47V41.74Z" fill="#C4A789"/><path d="M89.088 40.41h-4.47v1.332h4.47V40.41Z" fill="#B89571"/><path d="M89.595 40.41h-.508v17.309h.508V40.41Z" fill="#B38E69"/><path d="M89.595 37.852h-3.323v2.56h3.323v-2.56Z" fill="#C4A789"/><path d="M90.176 38.134h-.582v1.737h.582v-1.737Z" fill="#B38E69"/><path d="M96.646 45.9H95.56v5.022h1.085v-5.023Z" fill="#AF8861"/><path d="M71.855 52.164h1.58v3.532h-1.58v-3.532Z" fill="#9A744E"/><path d="M73.435 52.164h.27v3.802h-.27v-3.802ZM73.435 55.702v.27h-1.58v-.27h1.58Z" fill="#96714C"/><path d="M74.446 52.164h1.58v3.532h-1.58v-3.532Z" fill="#9A744E"/><path d="M76.026 52.164h.27v3.802h-.27v-3.802ZM76.026 55.702v.27h-1.58v-.27h1.58Z" fill="#96714C"/><path d="M71.855 58.147h1.58v3.532h-1.58v-3.532Z" fill="#9A744E"/><path d="M73.435 58.147h.27v3.802h-.27v-3.802ZM73.435 61.685v.27h-1.58v-.27h1.58Z" fill="#96714C"/><path d="M74.446 58.147h1.58v3.532h-1.58v-3.532Z" fill="#9A744E"/><path d="M76.026 58.147h.27v3.802h-.27v-3.802ZM76.026 61.685v.27h-1.58v-.27h1.58Z" fill="#96714C"/><path d="M71.855 64.07h1.58V67.6h-1.58V64.07Z" fill="#9A744E"/><path d="M73.435 64.07h.27v3.801h-.27V64.07ZM73.435 67.607v.27h-1.58v-.27h1.58Z" fill="#96714C"/><path d="M74.446 64.07h1.58V67.6h-1.58V64.07Z" fill="#9A744E"/><path d="M76.026 64.07h.27v3.801h-.27V64.07ZM76.026 67.607v.27h-1.58v-.27h1.58Z" fill="#96714C"/><path d="M73.785 55.962h-2.01v.288h2.01v-.288ZM76.374 55.962h-2.01v.288h2.01v-.288ZM73.785 61.955h-2.01v.288h2.01v-.288ZM76.374 61.955h-2.01v.288h2.01v-.288ZM73.785 67.877h-2.01v.288h2.01v-.288ZM76.374 67.877h-2.01v.288h2.01v-.288Z" fill="#C9AE93"/><path d="M165.002 74.434H0V77h165.002v-2.566Z" fill="#F8F5F1"/><path d="M109.839 72.692h-12.08v1.79h12.08v-1.79Z" fill="#6F5438"/><path d="M104.098 73.488h-1.103v.402h1.103v-.402ZM99.936 73.024h-1.104v.403h1.104v-.403ZM107.649 73.185h-1.104v.403h1.104v-.403ZM109.318 73.89h-1.103v.403h1.103v-.403ZM103.469 73.94h-1.104v.404h1.104v-.403Z" fill="#8C6946"/><path d="M109.839 72.36h-12.08v.339h12.08v-.34Z" fill="#BC9B79"/><path d="M99.06 72.37c-.357-.67 1.007-.788 1.309-.725-.107-.248-.443-.563-.063-.677.721-.218.971.281 1.278.299.189-.1.314-.691 1.167-.867.319-.066.673.045 1.561.252.241-.035.386-.5.914-.536.623-.043.621.503.71.741.271.024.623-.287.899.016.323.355-.081.681-.032.883.851-.234 2.572.614 1.877.614h-9.62Z" fill="#604830"/><path d="M129.735 16.408h-.791v3.666h.791v-3.666Z" fill="#BA9875"/><path d="M131.965 16.408h-2.228v3.666h2.228v-3.666Z" fill="#E5D8CB"/><path d="M133.729 16.408h-.792v3.666h.792v-3.666Z" fill="#BA9875"/><path d="M135.956 16.408h-2.228v3.666h2.228v-3.666Z" fill="#E5D8CB"/><path d="M137.723 16.408h-.792v3.666h.792v-3.666Z" fill="#BA9875"/><path d="M139.95 16.408h-2.228v3.666h2.228v-3.666Z" fill="#E5D8CB"/><path d="M141.716 16.408h-.791v3.666h.791v-3.666Z" fill="#BA9875"/><path d="M143.943 16.408h-2.228v3.666h2.228v-3.666Z" fill="#E5D8CB"/><path d="M129.735 21.04h-.791v3.667h.791v-3.666Z" fill="#BA9875"/><path d="M131.965 21.04h-2.228v3.667h2.228v-3.666Z" fill="#E5D8CB"/><path d="M133.729 21.04h-.792v3.667h.792v-3.666Z" fill="#BA9875"/><path d="M135.956 21.04h-2.228v3.667h2.228v-3.666Z" fill="#E5D8CB"/><path d="M137.723 21.04h-.792v3.667h.792v-3.666Z" fill="#BA9875"/><path d="M139.95 21.04h-2.228v3.667h2.228v-3.666Z" fill="#E5D8CB"/><path d="M141.716 21.04h-.791v3.667h.791v-3.666Z" fill="#BA9875"/><path d="M143.943 21.04h-2.228v3.667h2.228v-3.666Z" fill="#E5D8CB"/><path d="M129.735 25.674h-.791v3.666h.791v-3.666Z" fill="#BA9875"/><path d="M131.965 25.674h-2.228v3.666h2.228v-3.666Z" fill="#E5D8CB"/><path d="M133.729 25.674h-.792v3.666h.792v-3.666Z" fill="#BA9875"/><path d="M135.956 25.674h-2.228v3.666h2.228v-3.666Z" fill="#E5D8CB"/><path d="M137.723 25.674h-.792v3.666h.792v-3.666Z" fill="#BA9875"/><path d="M139.95 25.674h-2.228v3.666h2.228v-3.666Z" fill="#E5D8CB"/><path d="M141.716 25.674h-.791v3.666h.791v-3.666Z" fill="#BA9875"/><path d="M143.943 25.674h-2.228v3.666h2.228v-3.666Z" fill="#E5D8CB"/><path d="M129.735 30.307h-.791v3.667h.791v-3.667Z" fill="#BA9875"/><path d="M131.965 30.307h-2.228v3.667h2.228v-3.667Z" fill="#E5D8CB"/><path d="M133.729 30.307h-.792v3.667h.792v-3.667Z" fill="#BA9875"/><path d="M135.956 30.307h-2.228v3.667h2.228v-3.667Z" fill="#E5D8CB"/><path d="M137.723 30.307h-.792v3.667h.792v-3.667Z" fill="#BA9875"/><path d="M139.95 30.307h-2.228v3.667h2.228v-3.667Z" fill="#E5D8CB"/><path d="M141.716 30.307h-.791v3.667h.791v-3.667Z" fill="#BA9875"/><path d="M143.943 30.307h-2.228v3.667h2.228v-3.667Z" fill="#E5D8CB"/><path d="M129.735 34.94h-.791v3.667h.791V34.94Z" fill="#BA9875"/><path d="M131.965 34.94h-2.228v3.667h2.228V34.94Z" fill="#E5D8CB"/><path d="M133.729 34.94h-.792v3.667h.792V34.94Z" fill="#BA9875"/><path d="M135.956 34.94h-2.228v3.667h2.228V34.94Z" fill="#E5D8CB"/><path d="M137.723 34.94h-.792v3.667h.792V34.94Z" fill="#BA9875"/><path d="M139.95 34.94h-2.228v3.667h2.228V34.94Z" fill="#E5D8CB"/><path d="M141.716 34.94h-.791v3.667h.791V34.94Z" fill="#BA9875"/><path d="M143.943 34.94h-2.228v3.667h2.228V34.94Z" fill="#E5D8CB"/><path d="M129.735 39.574h-.791v3.666h.791v-3.666Z" fill="#BA9875"/><path d="M131.965 39.574h-2.228v3.666h2.228v-3.666Z" fill="#E5D8CB"/><path d="M133.729 39.574h-.792v3.666h.792v-3.666Z" fill="#BA9875"/><path d="M135.956 39.574h-2.228v3.666h2.228v-3.666Z" fill="#E5D8CB"/><path d="M137.723 39.574h-.792v3.666h.792v-3.666Z" fill="#BA9875"/><path d="M139.95 39.574h-2.228v3.666h2.228v-3.666Z" fill="#E5D8CB"/><path d="M141.716 39.574h-.791v3.666h.791v-3.666Z" fill="#BA9875"/><path d="M143.943 39.574h-2.228v3.666h2.228v-3.666Z" fill="#E5D8CB"/><path d="M129.735 44.207h-.791v3.666h.791v-3.666Z" fill="#BA9875"/><path d="M131.965 44.207h-2.228v3.666h2.228v-3.666Z" fill="#E5D8CB"/><path d="M133.729 44.207h-.792v3.666h.792v-3.666Z" fill="#BA9875"/><path d="M135.956 44.207h-2.228v3.666h2.228v-3.666Z" fill="#E5D8CB"/><path d="M137.723 44.207h-.792v3.666h.792v-3.666Z" fill="#BA9875"/><path d="M139.95 44.207h-2.228v3.666h2.228v-3.666Z" fill="#E5D8CB"/><path d="M141.716 44.207h-.791v3.666h.791v-3.666Z" fill="#BA9875"/><path d="M143.943 44.207h-2.228v3.666h2.228v-3.666Z" fill="#E5D8CB"/><path d="M129.735 48.84h-.791v3.667h.791V48.84Z" fill="#BA9875"/><path d="M131.965 48.84h-2.228v3.667h2.228V48.84Z" fill="#E5D8CB"/><path d="M133.729 48.84h-.792v3.667h.792V48.84Z" fill="#BA9875"/><path d="M135.956 48.84h-2.228v3.667h2.228V48.84Z" fill="#E5D8CB"/><path d="M137.723 48.84h-.792v3.667h.792V48.84Z" fill="#BA9875"/><path d="M139.95 48.84h-2.228v3.667h2.228V48.84Z" fill="#E5D8CB"/><path d="M141.716 48.84h-.791v3.667h.791V48.84Z" fill="#BA9875"/><path d="M143.943 48.84h-2.228v3.667h2.228V48.84Z" fill="#E5D8CB"/><path d="M129.735 53.474h-.791v3.666h.791v-3.666Z" fill="#BA9875"/><path d="M131.965 53.474h-2.228v3.666h2.228v-3.666Z" fill="#E5D8CB"/><path d="M133.729 53.474h-.792v3.666h.792v-3.666Z" fill="#BA9875"/><path d="M135.956 53.474h-2.228v3.666h2.228v-3.666Z" fill="#E5D8CB"/><path d="M137.723 53.474h-.792v3.666h.792v-3.666Z" fill="#BA9875"/><path d="M139.95 53.474h-2.228v3.666h2.228v-3.666Z" fill="#E5D8CB"/><path d="M141.716 53.474h-.791v3.666h.791v-3.666Z" fill="#BA9875"/><path d="M143.943 53.474h-2.228v3.666h2.228v-3.666Z" fill="#E5D8CB"/><path d="M151.862 16.105h-1.006v44.318h1.006V16.105Z" fill="#FDFCFA"/><path d="M150.856 16.105h-.496v44.318h.496V16.105Z" fill="#9A744D"/><path d="M149.163 16.105h-1.006v44.318h1.006V16.105Z" fill="#FDFCFA"/><path d="M148.156 16.105h-.495v44.318h.495V16.105Z" fill="#9A744D"/><path d="M135.208 10.546h-1.367v1.982h1.367v-1.982ZM137.741 10.546h-1.366v1.982h1.366v-1.982ZM140.274 10.546h-1.366v1.982h1.366v-1.982Z" fill="#AE875F"/><path d="M150.331 63.016h-21.72v-2.32h21.72" fill="#DCCBBA"/><path d="M150.887 64.553h-.562v4.774h.562v-4.774Z" fill="#BA9875"/><path d="M151.844 64.553h-.958v4.774h.958v-4.774Z" fill="#E5D8CB"/><path d="M153.249 64.553h-.562v4.774h.562v-4.774Z" fill="#BA9875"/><path d="M154.206 64.553h-.958v4.774h.958v-4.774Z" fill="#E5D8CB"/><path d="M150.332 60.696h3.76v2.32h-3.76" fill="#AA8056"/><path d="M150.332 68.334h-21.441v-5.322h21.441" fill="#C3A688"/><path d="M150.332 63.012h3.76v5.322h-3.76" fill="#AF8861"/><path d="M150.331 69.073h-21.72v-.742h21.72" fill="#DBC9B7"/><path d="M150.332 68.33h3.76v.743h-3.76" fill="#CFB8A0"/><path d="M150.332 74.487h-21.441v-5.411h21.441" fill="#C3A688"/><path d="M150.332 69.076h3.76v5.411h-3.76" fill="#AF8861"/><path d="M128.891 64.129h.545v-.546h.415v-.57h-.96v1.116ZM128.891 65.529h.545v-.546h.415v-.57h-.96v1.116ZM128.891 66.929h.545v-.546h.415v-.57h-.96v1.116ZM128.891 68.329h.545v-.545h.415v-.572h-.96v1.117ZM128.919 70.071h.545v-.545h.415v-.571h-.96v1.116ZM128.919 71.502h.545v-.546h.415v-.57h-.96v1.116ZM128.919 72.932h.545v-.545h.415v-.571h-.96v1.116ZM128.919 74.372h.545v-.545h.415v-.571h-.96v1.116ZM150.331 64.129h-.545v-.546h-.416v-.57h.961v1.116ZM150.331 65.529h-.545v-.546h-.416v-.57h.961v1.116ZM150.331 66.929h-.545v-.546h-.416v-.57h.961v1.116ZM150.331 68.329h-.545v-.545h-.416v-.572h.961v1.117ZM150.331 70.192h-.545v-.545h-.416v-.571h.961v1.116ZM150.331 71.623h-.545v-.546h-.416v-.57h.961v1.115ZM150.331 73.052h-.545v-.545h-.416v-.57h.961v1.115ZM150.331 74.483h-.545v-.545h-.416v-.571h.961v1.116Z" fill="#EBE1D7"/><path d="M138.198 63.607h-1.028v4.158h1.028v-4.158Z" fill="#F8F5F1"/><path d="M137.169 63.607h-.089v4.158h.089v-4.158Z" fill="#B89571"/><path d="M137.081 63.607h-4.632v4.158h4.632v-4.158ZM132.361 63.607h-.889v4.158h.889v-4.158Z" fill="#F8F5F1"/><path d="M131.47 63.607h-.31v4.158h.31v-4.158ZM132.45 63.607h-.089v4.158h.089v-4.158Z" fill="#B89571"/><path d="M148.59 63.607h-1.028v4.158h1.028v-4.158Z" fill="#F8F5F1"/><path d="M147.561 63.607h-.089v4.158h.089v-4.158Z" fill="#B89571"/><path d="M147.473 63.607h-4.632v4.158h4.632v-4.158ZM142.753 63.607h-.889v4.158h.889v-4.158Z" fill="#F8F5F1"/><path d="M141.864 63.607h-.31v4.158h.31v-4.158ZM142.843 63.607h-.09v4.158h.09v-4.158Z" fill="#B89571"/><path d="M148.562 69.52h-.665v3.078h.665v-3.079Z" fill="#F8F5F1"/><path d="M147.897 69.52h-.058v3.078h.058v-3.079Z" fill="#B89571"/><path d="M147.84 69.52h-2.997v3.078h2.997v-3.079ZM144.786 69.52h-.575v3.078h.575v-3.079Z" fill="#F8F5F1"/><path d="M144.21 69.52h-.201v3.078h.201v-3.079ZM144.843 69.52h-.058v3.078h.058v-3.079Z" fill="#B89571"/><path d="M137.559 70.627h-5.722v3.86h5.722v-3.86ZM141.46 70.627h-2.834v3.86h2.834v-3.86Z" fill="#73573A"/><path d="M140.028 65.407h-.995v-.551h-.415v-.564h.96v.564h.45v.552ZM143.459 69.358h-.96v.564h.96v-.564Z" fill="#EBE1D7"/><path d="M154.09 60.696v13.796h5.799v-20.83h-5.799v4.829h-8.791v-7.203l-3.801 2.137v3.38l-4.579 2.152v1.739h17.171Z" fill="#9A744E"/><path d="M136.919 58.953h-4.672v1.74h4.672v-1.74ZM141.499 53.423h-4.671v3.381h4.671v-3.38Z" fill="#C3A688"/><path d="M158.351 54.773h-.482v20.535h.482V54.773ZM154.091 52.688h-5.705v5.796h5.705v-5.796Z" fill="#F8F5F1"/><path d="M132.247 58.949h4.672l4.579-2.151h-4.672l-4.579 2.151ZM136.828 53.425h4.671l3.801-2.137h-4.671l-3.801 2.137Z" fill="#513D29"/><path d="M35.205 53.422h4.672l3.042-1.69h-4.671l-3.043 1.69Z" fill="#FDFDFC"/></g></svg>