<svg xmlns="http://www.w3.org/2000/svg" viewBox="0 0 16 16"><path d="M4.5 2C3.677 2 3 2.677 3 3.5V4H2v1h2V3.5c0-.281.219-.5.5-.5h7c.281 0 .5.219.5.5v9c0 .281-.219.5-.5.5h-7a.493.493 0 0 1-.5-.5V12H3v.5c0 .823.677 1.5 1.5 1.5h7c.823 0 1.5-.677 1.5-1.5v-9c0-.823-.677-1.5-1.5-1.5h-7zM8 5c-1.099 0-2 .901-2 2 0 .536.217 1.023.564 1.383A2.995 2.995 0 0 0 5 11h1c0-1.11.89-2 2-2 1.11 0 2 .89 2 2h1a2.995 2.995 0 0 0-1.564-2.617A1.99 1.99 0 0 0 10 7c0-1.099-.901-2-2-2zM3 6v1H2v1h2V6H3zm5 0c.558 0 1 .442 1 1s-.442 1-1 1-1-.442-1-1 .442-1 1-1zM3 9v1H2v1h2V9H3z" fill="currentColor" /></svg>