<svg xmlns="http://www.w3.org/2000/svg" xml:space="preserve" viewBox="0 0 100 125">
  <path fill="currentColor" d="M91.473 78.791 75.877 63.193a37.566 37.566 0 0 0 6.728-21.49c0-20.844-16.962-37.799-37.805-37.799C23.956 3.904 7 20.859 7 41.703c0 20.849 16.956 37.803 37.8 37.803 5.744 0 11.189-1.29 16.069-3.593l16.742 16.744a9.538 9.538 0 0 0 6.777 2.79 9.826 9.826 0 0 0 6.979-2.901c3.82-3.821 3.867-9.996.106-13.755zM22.119 41.703c0-12.505 10.176-22.682 22.681-22.682 12.507 0 22.683 10.177 22.683 22.682 0 12.509-10.176 22.685-22.683 22.685-12.505 0-22.681-10.176-22.681-22.685z"/>
</svg>
