<svg width="64" height="72" fill="none" xmlns="http://www.w3.org/2000/svg"><path d="m33.06 33.3-15.524-8.143a1.375 1.375 0 0 0-1.277 0L.735 33.3A1.373 1.373 0 0 0 0 34.515V53.96a1.372 1.372 0 0 0 .735 1.215l15.524 8.142a1.374 1.374 0 0 0 1.278 0l15.523-8.142a1.373 1.373 0 0 0 .736-1.215V34.514a1.372 1.372 0 0 0-.736-1.215Z" fill="#F5D97B" style="mix-blend-mode:lighten"/><path d="M63.265 33.313 47.74 25.171a1.375 1.375 0 0 0-1.278 0L30.94 33.313a1.374 1.374 0 0 0-.735 1.216v19.443a1.372 1.372 0 0 0 .735 1.215l15.524 8.143a1.375 1.375 0 0 0 1.278 0l15.524-8.143A1.374 1.374 0 0 0 64 53.972V34.529a1.372 1.372 0 0 0-.735-1.216Z" fill="#F5D97B"/><path d="m48.196 41.276-15.524-8.142a1.375 1.375 0 0 0-1.277 0L15.87 41.276a1.373 1.373 0 0 0-.735 1.216v19.443a1.372 1.372 0 0 0 .735 1.215l15.524 8.143a1.375 1.375 0 0 0 1.277 0l15.524-8.143a1.374 1.374 0 0 0 .735-1.215V42.492a1.372 1.372 0 0 0-.735-1.216Z" fill="#F5D97B" style="mix-blend-mode:multiply"/><path d="M13.21 5.453a.448.448 0 0 1-.046-.203c0-.078.047-.172.14-.281a.518.518 0 0 1 .415-.172h1.71c.407 0 .717.247.93.742l3.024 6.734 3.023-6.734c.214-.49.524-.737.93-.742h1.71c.183 0 .321.057.415.172.094.11.14.203.14.281 0 .073-.012.14-.038.203l-4.5 9.75c-.245.531-.618.797-1.118.797H18.82c-.5 0-.872-.266-1.117-.797l-4.492-9.75Zm13.676 7.68c0-.307.091-.526.273-.656.183-.136.36-.204.532-.204h.93c.468 0 .825.256 1.07.766.244.51.794.766 1.648.766l2.734.054c.917 0 1.375-.3 1.375-.898 0-.453-.56-.81-1.68-1.07a35.57 35.57 0 0 0-1.656-.352 20.295 20.295 0 0 1-1.804-.445 11.216 11.216 0 0 1-1.64-.625c-.5-.24-.907-.568-1.22-.985-.307-.421-.46-.916-.46-1.484 0-1.047.372-1.852 1.117-2.414.744-.568 2.026-.852 3.843-.852l1.985.047c1.068 0 2.029.276 2.883.828.859.547 1.289 1.232 1.289 2.055 0 .307-.091.529-.274.664-.182.136-.357.203-.523.203h-.93c-.469 0-.825-.255-1.07-.765-.245-.516-.794-.774-1.649-.774l-2.351-.047c-.917 0-1.375.3-1.375.899 0 .328.289.596.867.804.583.209 1.287.394 2.11.555.828.156 1.658.346 2.492.57.833.224 1.539.594 2.117 1.11.583.51.875 1.148.875 1.914 0 1.047-.375 1.854-1.125 2.422-.745.562-2.024.844-3.836.844l-2.367-.047c-1.068 0-2.032-.274-2.891-.82-.86-.553-1.29-1.24-1.29-2.063ZM41.6 14.68c-.964-.922-1.445-2.347-1.445-4.274 0-1.932.481-3.36 1.445-4.281.969-.927 2.42-1.39 4.352-1.39h1.742c1.182 0 2.226.307 3.133.921.911.615 1.367 1.456 1.367 2.524 0 .307-.091.528-.274.664-.182.13-.36.195-.53.195h-.93c-.48 0-.852-.286-1.118-.86-.385-.822-1.026-1.234-1.922-1.234h-1.39c-1.14 0-1.914.245-2.32.735-.407.49-.61 1.396-.61 2.718 0 1.323.203 2.232.61 2.727.406.49 1.18.734 2.32.734h1.554c.896 0 1.534-.411 1.914-1.234.266-.578.641-.867 1.125-.867h.93a.69.69 0 0 1 .578.273c.146.182.219.38.219.594 0 1.068-.453 1.909-1.36 2.523-.906.61-1.95.915-3.132.915h-1.906c-1.933 0-3.383-.461-4.352-1.383Z" fill="#F5D97B"/></svg>