<svg xmlns="http://www.w3.org/2000/svg" xml:space="preserve" viewBox="0 0 52 65">
  <path fill="currentColor" d="M6.286 48.621a1 1 0 0 1-1-1V9.865a1 1 0 0 1 2 0v37.756a1 1 0 0 1-1 1zM49 48.621a1 1 0 0 1-1-1v-26.22a1 1 0 0 1 2 0v26.22a1 1 0 0 1-1 1z"/>
  <path fill="currentColor" d="M47.905 36.036H6.285a1 1 0 0 1 0-2h41.62a1 1 0 0 1 0 2zM46.714 32.89H19.08v-4.775a5.622 5.622 0 0 1 5.615-5.616H41.1a5.622 5.622 0 0 1 5.615 5.616v4.774zm-25.635-2h23.635v-2.775a3.62 3.62 0 0 0-3.615-3.616H24.694a3.62 3.62 0 0 0-3.615 3.616v2.774zM13.16 32.89c-2.53 0-4.589-1.99-4.589-4.436s2.059-4.436 4.59-4.436c2.53 0 4.589 1.99 4.589 4.436s-2.059 4.435-4.59 4.435zm0-6.872c-1.427 0-2.589 1.093-2.589 2.436s1.162 2.435 2.59 2.435 2.589-1.092 2.589-2.435-1.162-2.436-2.59-2.436zM3.001 22.402a.999.999 0 0 1-.555-1.832L28.253 3.379l15.905 13.055a1 1 0 1 1-1.268 1.546L28.129 5.864 3.554 22.234a.993.993 0 0 1-.553.168z"/>
</svg>
