<svg xmlns="http://www.w3.org/2000/svg" xml:space="preserve" viewBox="0 0 52 65">
  <path fill="currentColor" d="M49 47.5a1 1 0 0 1-1-1V21.043L25.878 6.694 4 21.04V46.5a1 1 0 1 1-2 0v-26a1 1 0 0 1 .452-.836l22.875-15c.332-.217.76-.218 1.092-.003l23.125 15A1 1 0 0 1 50 20.5v26a1 1 0 0 1-1 1z"/>
  <path fill="currentColor" d="M11.695 39.117c-.083 0-.167-.01-.25-.031-.114-.03-2.778-.756-1.663-5.212.069-.273.101-.512.1-.732l-.015-2.246a4.495 4.495 0 0 1 .324-1.74c.563-1.381 2.325-4.68 6.49-5.475 4.758-.906 7.563-1.404 9.903-1.055.885.13 1.766.301 2.617.507a4.687 4.687 0 0 1 2.22 1.243l2.748 2.757c.318.319.714.553 1.146.677 2.228.642 6.267 2.114 8.28 4.772.912 1.204 1.21 2.382.883 3.503-.545 1.868-2.614 2.682-2.848 2.77a1 1 0 1 1-.695-1.875c.374-.143 1.402-.686 1.625-1.46.136-.478-.052-1.06-.559-1.731-1.726-2.278-5.637-3.596-7.24-4.057a4.668 4.668 0 0 1-2.008-1.186l-2.749-2.758a2.699 2.699 0 0 0-1.274-.711 27.681 27.681 0 0 0-2.439-.473c-1.92-.284-4.288.099-9.234 1.042-3.089.589-4.468 2.926-5.015 4.266-.119.292-.178.619-.175.97l.015 2.248c.002.39-.05.792-.16 1.229-.484 1.937-.038 2.68.266 2.804.535.134.833.67.698 1.206-.114.452-.539.748-.99.748z"/>
  <path fill="currentColor" d="M14.775 30.633a1 1 0 0 1-.007-2l22.378-.15h.006a1 1 0 0 1 .007 2l-22.377.15h-.007z"/>
  <path fill="currentColor" d="M23.028 30.578a1 1 0 0 1-1-.993l-.04-5.94a1 1 0 0 1 .993-1.008h.007a1 1 0 0 1 1 .993l.04 5.94a1 1 0 0 1-.993 1.008h-.007zM17.348 42.327c-2.192 0-3.983-1.732-3.997-3.871-.015-2.15 1.766-3.91 3.971-3.926h.027c2.193 0 3.984 1.731 3.998 3.871a3.828 3.828 0 0 1-1.165 2.777 4.025 4.025 0 0 1-2.807 1.149h-.027zm.002-5.797h-.015c-1.1.008-1.991.865-1.984 1.912.006 1.047.917 1.929 2.01 1.885a2.033 2.033 0 0 0 1.421-.577c.368-.36.568-.834.565-1.335-.007-1.042-.902-1.885-1.997-1.885zM35.77 42.436c-1.05 0-2.041-.393-2.793-1.11a3.826 3.826 0 0 1-1.202-2.76 3.824 3.824 0 0 1 1.165-2.777 4.027 4.027 0 0 1 2.808-1.149h.03c1.05 0 2.04.394 2.792 1.11a3.829 3.829 0 0 1 .037 5.537 4.027 4.027 0 0 1-2.808 1.15h-.03zm.006-5.796h-.015a2.036 2.036 0 0 0-1.422.577c-.367.36-.567.833-.564 1.334s.21.972.583 1.328c.377.359.878.557 1.413.557h.015a2.036 2.036 0 0 0 1.422-.577 1.84 1.84 0 0 0 .563-1.334 1.842 1.842 0 0 0-.582-1.327 2.038 2.038 0 0 0-1.413-.558z"/>
  <path fill="currentColor" d="M20.349 39.642a1 1 0 0 1-.007-2l12.427-.084h.006a1 1 0 0 1 .007 2l-12.427.084h-.006z"/>
  <path fill="currentColor" d="M25.5 18.5c-2.481 0-4.5-2.019-4.5-4.5s2.019-4.5 4.5-4.5S30 11.518 30 14s-2.019 4.5-4.5 4.5zm0-7c-1.378 0-2.5 1.12-2.5 2.5s1.122 2.5 2.5 2.5S28 15.379 28 14s-1.122-2.5-2.5-2.5z"/>
  <path fill="currentColor" d="M45 45.5H9a1 1 0 1 1 0-2h36a1 1 0 1 1 0 2z"/>
</svg>
