<svg xmlns="http://www.w3.org/2000/svg" xml:space="preserve" viewBox="0 0 52 65">
  <path fill="currentColor" d="M47.565 47.5H35.096a1 1 0 0 1 0-2h12.469c.249 0 .435-.155.435-.293V6.792c0-.138-.186-.292-.435-.292H4.435c-.249 0-.435.154-.435.292v38.415c0 .138.186.293.435.293h19.681a1 1 0 0 1 0 2H4.436C3.091 47.5 2 46.471 2 45.207V6.792C2 5.528 3.092 4.5 4.435 4.5h43.13C48.908 4.5 50 5.528 50 6.792v38.415c0 1.264-1.092 2.293-2.435 2.293z"/>
  <path fill="currentColor" d="M30.059 39.3H3a1 1 0 0 1 0-2h27.059a1 1 0 0 1 0 2z"/>
  <path fill="currentColor" d="M17.923 39.3a1 1 0 0 1-1-1V33.17a1 1 0 0 1 2 0V38.3a1 1 0 0 1-1 1zM20.547 24.303H3a1 1 0 0 1 0-2h17.547a1 1 0 0 1 0 2zM34.732 28.262a1 1 0 0 1-1-1v-2.959H25.55a1 1 0 0 1 0-2h8.183V11.188h2v16.074a1 1 0 0 1-1 1z"/>
  <path fill="currentColor" d="M48.016 19.988H34.732a1 1 0 0 1 0-2h13.284a1 1 0 0 1 0 2zM34.732 47.499a1 1 0 0 1-1-1v-11.29a1 1 0 0 1 2 0v11.29a1 1 0 0 1-1 1z"/>
</svg>
